<?xml version="1.0" encoding="iso-8859-1"?>
<!-- Uploaded to: SVGRepo, www.svgrepo.com, Transformed by: SVGRepo Tools -->
<svg fill="#FFFFFF" height="800px" width="800px" version="1.1" id="Layer_1" xmlns="http://www.w3.org/2000/svg" xmlns:xlink="http://www.w3.org/1999/xlink"
	 viewBox="0 0 350 350" xml:space="preserve">
<path id="XMLID_231_" d="M285,240h-16.991l-18.16-127.121c-0.018-0.123-0.048-0.24-0.069-0.361
	c-0.039-0.236-0.083-0.471-0.133-0.703c-0.05-0.229-0.106-0.453-0.166-0.678c-0.06-0.229-0.123-0.455-0.195-0.682
	c-0.072-0.227-0.152-0.447-0.234-0.668c-0.08-0.217-0.16-0.434-0.25-0.646c-0.097-0.228-0.204-0.447-0.311-0.669
	c-0.096-0.198-0.189-0.399-0.294-0.593c-0.132-0.246-0.279-0.482-0.424-0.719c-0.1-0.161-0.191-0.326-0.297-0.484
	c-0.26-0.389-0.536-0.768-0.83-1.129c-0.038-0.047-0.082-0.09-0.12-0.136c-0.27-0.323-0.551-0.636-0.846-0.936
	c-0.026-0.026-0.048-0.056-0.074-0.082c-0.088-0.089-0.185-0.163-0.275-0.249c-0.228-0.217-0.458-0.43-0.699-0.632
	c-0.156-0.131-0.315-0.253-0.475-0.376c-0.209-0.162-0.42-0.318-0.637-0.469c-0.183-0.127-0.368-0.25-0.556-0.367
	c-0.206-0.129-0.416-0.252-0.628-0.371c-0.198-0.111-0.396-0.221-0.597-0.322c-0.219-0.111-0.443-0.211-0.668-0.311
	c-0.199-0.088-0.396-0.18-0.598-0.258c-0.249-0.098-0.505-0.182-0.76-0.266c-0.183-0.061-0.364-0.128-0.549-0.182
	c-0.297-0.086-0.601-0.152-0.905-0.221c-0.15-0.033-0.298-0.075-0.448-0.104c-0.368-0.07-0.741-0.119-1.117-0.162
	c-0.092-0.01-0.182-0.028-0.274-0.037c-0.468-0.045-0.942-0.068-1.42-0.068h-15V65c0-19.555-12.542-36.228-30-42.42V15
	c0-8.284-6.716-15-15-15c-8.284,0-15,6.716-15,15v7.58c-17.459,6.192-30,22.865-30,42.42v35h-15
	c-7.465,0-13.794,5.489-14.849,12.879L81.991,240H65c-30.327,0-55,24.673-55,55s24.673,55,55,55h220c30.327,0,55-24.673,55-55
	S315.327,240,285,240z M131.213,240l93.181-93.181L237.705,240H131.213z M160,65c0-8.271,6.729-15,15-15s15,6.729,15,15v35h-30V65z
	 M145,130h53.787l-82.574,82.574L128.009,130H145z M40,295c0-13.785,11.215-25,25-25h30h83.787l-50,50H65
	C51.215,320,40,308.785,40,295z M285,320H171.213l50-50H255h30c13.785,0,25,11.215,25,25S298.785,320,285,320z"/>
<g>
</g>
<g>
</g>
<g>
</g>
<g>
</g>
<g>
</g>
<g>
</g>
<g>
</g>
<g>
</g>
<g>
</g>
<g>
</g>
<g>
</g>
<g>
</g>
<g>
</g>
<g>
</g>
<g>
</g>
</svg>
